<?xml version="1.0" encoding="iso-8859-1"?>
<!-- Generator: Adobe Illustrator 19.0.0, SVG Export Plug-In . SVG Version: 6.00 Build 0)  -->
<svg version="1.1" id="Capa_1" xmlns="http://www.w3.org/2000/svg" xmlns:xlink="http://www.w3.org/1999/xlink" x="0px" y="0px"
	 viewBox="0 0 512 512" style="enable-background:new 0 0 512 512;" xml:space="preserve">
<g fill="#9f9f9f">
	<g>
		<g>
			<circle cx="138" cy="324" r="20"/>
			<circle cx="138" cy="424" r="20"/>
			<rect x="80" y="354" width="116" height="40"/>
			<polygon points="118,196 158,196 158,158 196,158 196,118 158,118 158,80 118,80 118,118 80,118 80,158 118,158 			"/>
			<path d="M452,0H60C26.916,0,0,26.916,0,60v392c0,33.084,26.916,60,60,60h392c33.084,0,60-26.916,60-60V60
				C512,26.916,485.084,0,452,0z M236,472H60c-11.028,0-20-8.972-20-20V277h196V472z M236,237H40V60c0-11.028,8.972-20,20-20h176
				V237z M472,452c0,11.028-8.972,20-20,20H276V277h196V452z M472,237H276V40h176c11.028,0,20,8.972,20,20V237z"/>
			<polygon points="344.46,431.942 373.96,402.442 403.46,431.942 431.744,403.658 402.244,374.158 431.744,344.658 403.46,316.374 
				373.96,345.874 344.46,316.374 316.176,344.658 345.676,374.158 316.176,403.658 			"/>
			<rect x="316" y="118" width="116" height="40"/>
		</g>
	</g>
</g>
<g>
</g>
<g>
</g>
<g>
</g>
<g>
</g>
<g>
</g>
<g>
</g>
<g>
</g>
<g>
</g>
<g>
</g>
<g>
</g>
<g>
</g>
<g>
</g>
<g>
</g>
<g>
</g>
<g>
</g>
</svg>
